<svg width="400" height="100" viewBox="0 0 400 100" fill="none" xmlns="http://www.w3.org/2000/svg">
<rect x="95" y="66" width="296" height="4" rx="2" fill="#FFD36C"/>
<rect width="19" height="4" rx="2" transform="matrix(-1 0 0 1 93 66)" fill="#FFD36C"/>
<rect width="4" height="4" rx="2" transform="matrix(-1 0 0 1 72 66)" fill="#FFD36C"/>
<path d="M281.576 60.616L283.016 55.72C283.256 54.952 283.976 54.52 284.6 54.52H284.792C285.176 54.568 285.512 54.568 285.896 54.568C288.968 54.568 291.656 53.128 292.28 50.584C293.432 45.736 294.104 33.64 294.248 24.184C294.296 22.936 294.92 22.744 295.544 22.744C296.936 22.744 305 23.128 305.72 23.176C306.536 23.272 307.064 23.896 307.064 24.616V24.712C306.44 33.976 306.2 44.488 304.568 52.264C302.792 60.952 296.12 63.976 289.832 63.976C287.096 63.976 284.408 63.4 282.248 62.44C281.672 62.2 281.528 61.576 281.528 61.096C281.528 60.904 281.528 60.76 281.576 60.616Z" fill="url(#paint0_linear_0_1)"/>
<path d="M342.752 56.728L339.776 62.536C339.344 63.352 338.864 63.784 338.24 63.784C337.76 63.784 334.4 63.016 332 60.76C329.504 62.056 326.912 62.632 324.464 62.632C316.448 62.632 309.536 56.488 309.536 48.76C309.536 43 313.616 34.696 323.12 34.696C325.52 34.696 327.872 35.224 329.744 36.04C330.032 35.704 330.464 35.56 331.04 35.56H331.28L339.584 36.28C340.832 36.376 341.168 37 341.168 37.576V37.816C340.496 42.184 339.824 46.36 339.824 49.528C339.824 52.408 340.352 54.472 341.888 55.288C342.368 55.528 342.896 55.816 342.896 56.296C342.896 56.392 342.848 56.536 342.752 56.728ZM328.688 53.224C328.544 51.976 328.448 50.632 328.448 49.144C328.448 47.896 328.496 46.6 328.592 45.16C328.016 44.2 326.72 43.528 325.328 43.528C322.304 43.528 320.624 46.456 320.624 48.904C320.624 51.592 322.496 53.896 325.616 53.896C326.528 53.896 327.584 53.704 328.688 53.224Z" fill="url(#paint1_linear_0_1)"/>
<path d="M371.944 62.488L363.016 62.968H362.92C362.44 62.968 362.056 62.536 362.008 62.008L361.528 51.88C361.288 47.032 360.28 45.016 357.256 44.776L358.12 62.2C358.12 62.776 357.736 63.208 357.208 63.256L348.232 63.688H348.136C347.656 63.688 347.272 63.256 347.224 62.728L346.024 37.768V37.672C346.024 37.144 346.408 36.76 346.888 36.712L349.768 36.568C352.216 35.752 354.616 35.368 356.92 35.368C359.08 35.368 361.096 35.704 362.968 36.424C366.04 35.272 368.968 34.744 371.656 34.744C380.104 34.744 386.296 40.072 386.824 48.808C387.016 51.928 387.544 54.28 389.8 56.056C390.088 56.296 390.664 56.776 390.664 57.304C390.664 57.544 390.568 57.832 390.28 58.072C390.28 58.168 386.2 62.056 386.2 62.056C385.672 62.536 385.24 62.728 384.76 62.728C384.088 62.728 376.552 61.24 375.976 51.784C375.736 46.6 374.728 44.68 371.992 44.296L372.856 61.432C372.856 62.008 372.472 62.44 371.944 62.488Z" fill="url(#paint2_linear_0_1)"/>
<path d="M371.944 62.488L363.016 62.968H362.92C362.44 62.968 362.056 62.536 362.008 62.008L361.528 51.88C361.288 47.032 360.28 45.016 357.256 44.776L358.12 62.2C358.12 62.776 357.736 63.208 357.208 63.256L348.232 63.688H348.136C347.656 63.688 347.272 63.256 347.224 62.728L346.024 37.768V37.672C346.024 37.144 346.408 36.76 346.888 36.712L349.768 36.568C352.216 35.752 354.616 35.368 356.92 35.368C359.08 35.368 361.096 35.704 362.968 36.424C366.04 35.272 368.968 34.744 371.656 34.744C380.104 34.744 386.296 40.072 386.824 48.808C387.016 51.928 387.544 54.28 389.8 56.056C390.088 56.296 390.664 56.776 390.664 57.304C390.664 57.544 390.568 57.832 390.28 58.072C390.28 58.168 386.2 62.056 386.2 62.056C385.672 62.536 385.24 62.728 384.76 62.728C384.088 62.728 376.552 61.24 375.976 51.784C375.736 46.6 374.728 44.68 371.992 44.296L372.856 61.432C372.856 62.008 372.472 62.44 371.944 62.488Z" fill="url(#paint3_linear_0_1)"/>
<path d="M113.914 63.112H113.866L104.122 62.392C103.066 62.344 102.586 61.288 102.586 60.76V60.712L104.842 39.976V39.736C104.842 39.4 104.794 39.208 104.65 39.208C104.554 39.208 104.41 39.352 104.218 39.592C103.354 40.792 99.8499 48.28 97.4979 52.696C97.3059 53.08 96.7779 53.752 95.7219 53.8L90.7779 53.992C89.9139 53.992 89.4339 53.272 89.1459 52.696C86.7459 48.28 83.2419 41.08 82.3299 39.832C82.1379 39.592 81.9939 39.448 81.8499 39.448C81.7539 39.448 81.7059 39.64 81.7059 39.928V40.264L83.8659 60.664V60.712C83.8659 61.24 83.1939 62.248 82.1379 62.344L72.9219 63.112H72.8739C72.1059 63.112 71.5779 62.392 71.5779 61.72L69.7059 24.568C69.7059 24.04 69.9939 23.32 70.9059 23.224L80.3619 22.696H80.4579C81.1299 22.696 82.0899 23.08 82.2819 23.32C84.6339 26.104 89.1459 33.208 93.0819 39.976C93.1779 40.12 93.2259 40.168 93.3219 40.168C93.4179 40.168 93.4659 40.072 93.5619 39.928C97.4979 33.16 102.01 26.104 104.362 23.32C104.554 23.08 105.322 22.696 105.994 22.696H106.09L115.642 23.176C116.554 23.224 116.842 23.896 116.842 24.424V24.52L115.21 61.72C115.162 62.392 114.634 63.112 113.914 63.112Z" fill="url(#paint4_linear_0_1)"/>
<path d="M152.752 56.728L149.776 62.536C149.344 63.352 148.864 63.784 148.24 63.784C147.76 63.784 144.4 63.016 142 60.76C139.504 62.056 136.912 62.632 134.464 62.632C126.448 62.632 119.536 56.488 119.536 48.76C119.536 43 123.616 34.696 133.12 34.696C135.52 34.696 137.872 35.224 139.744 36.04C140.032 35.704 140.464 35.56 141.04 35.56H141.28L149.584 36.28C150.832 36.376 151.168 37 151.168 37.576V37.816C150.496 42.184 149.824 46.36 149.824 49.528C149.824 52.408 150.352 54.472 151.888 55.288C152.368 55.528 152.896 55.816 152.896 56.296C152.896 56.392 152.848 56.536 152.752 56.728ZM138.688 53.224C138.544 51.976 138.448 50.632 138.448 49.144C138.448 47.896 138.496 46.6 138.592 45.16C138.016 44.2 136.72 43.528 135.328 43.528C132.304 43.528 130.624 46.456 130.624 48.904C130.624 51.592 132.496 53.896 135.616 53.896C136.528 53.896 137.584 53.704 138.688 53.224Z" fill="url(#paint5_linear_0_1)"/>
<path d="M260.4 49C260.4 58.36 250.896 63.592 244.08 63.592C236.256 63.592 229.392 57.928 229.392 49.48C229.392 39.592 236.784 34.456 245.232 34.456C255.84 34.456 260.4 42.76 260.4 49ZM245.232 54.424C248.64 54.424 250.176 51.64 250.176 48.904C250.176 47.992 249.984 43.336 245.088 43.336C241.056 43.336 239.904 46.744 239.904 48.904C239.904 52.216 242.496 54.424 245.232 54.424Z" fill="url(#paint6_linear_0_1)"/>
<path d="M187.552 49.768V51.352C187.552 54.04 188.176 56.2 190.144 58.024C190.432 58.264 190.912 58.744 190.912 59.272C190.912 59.56 190.768 59.848 190.432 60.088C190.432 60.184 185.68 63.592 185.68 63.592C185.2 63.976 184.72 64.12 184.288 64.12C183.424 64.12 175.744 61.576 175.744 53.032V51.4C175.744 46.36 173.296 44.248 169.792 44.056L168.88 61.48C168.88 61.96 168.448 62.392 167.968 62.392H167.872L158.272 61.912C157.696 61.864 157.312 61.432 157.312 60.856L158.608 35.896C158.656 35.368 159.088 34.936 159.568 34.936H159.664L165.04 35.224C166.912 34.84 168.688 34.648 170.416 34.648C180.16 34.648 187.552 40.6 187.552 49.768Z" fill="url(#paint7_linear_0_1)"/>
<path d="M198.096 72.856L199.632 68.44C199.824 67.816 200.352 67.48 200.88 67.48C200.976 67.48 201.072 67.528 201.168 67.528C202.464 67.864 203.616 68.008 204.672 68.008C208.704 68.008 211.056 65.704 212.208 61.864C210.72 62.344 209.088 62.632 207.552 62.632C200.208 62.632 193.536 56.728 193.536 47.8C193.536 41.992 196.992 34.936 207.12 34.936C209.424 34.936 211.632 35.368 213.504 36.184C213.648 35.656 214.08 35.56 214.512 35.56H214.752C214.752 35.56 222.624 36.088 223.728 36.136C224.496 36.184 224.976 36.808 224.976 37.528C224.88 45.976 224.832 54.712 223.44 61.912C221.472 72.088 214.128 76.072 206.64 76.072C203.856 76.072 201.072 75.544 198.528 74.536C198.096 74.392 198 74.008 198 73.624C198 73.336 198.048 73.048 198.096 72.856ZM213.12 53.08L213.36 52.936C213.456 51.016 213.504 48.904 213.504 46.744C213.312 44.488 211.44 43.288 209.376 43.288C206.352 43.288 204.672 45.736 204.672 48.424C204.672 50.296 205.44 54.232 209.664 54.232C210.816 54.232 212.352 53.704 213.12 53.08Z" fill="url(#paint8_linear_0_1)"/>
<path d="M75.274 11.378H75.246L68.96 12.064H68.932C68.792 12.064 68.666 11.952 68.652 11.798L68.428 9.446V9.418C68.428 9.264 68.554 9.138 68.708 9.124L77.5 8.312C77.556 8.312 77.612 8.298 77.682 8.298C78.396 8.298 79.376 8.662 79.376 9.656C79.376 10.356 78.956 12.302 77.92 13.702C77.794 13.87 77.696 13.996 77.486 13.996C77.444 13.996 75.918 13.66 75.498 13.506C75.302 13.45 75.232 13.31 75.232 13.17C75.232 13.128 75.232 13.1 75.246 13.058C75.344 12.596 75.47 11.7 75.47 11.588C75.47 11.448 75.414 11.378 75.274 11.378ZM77.962 16.026L76.38 18.07C76.226 18.266 76.1 18.322 75.988 18.322C75.89 18.322 75.792 18.28 75.694 18.224C74.896 17.762 72.558 16.362 71.984 15.984C71.816 15.886 71.676 15.732 71.676 15.592C71.676 15.536 71.69 15.48 71.732 15.438L72.992 13.996C73.132 13.842 73.286 13.688 73.51 13.688C74 13.688 77.08 14.808 77.794 15.34C77.948 15.466 78.046 15.62 78.046 15.774C78.046 15.858 78.018 15.942 77.962 16.026Z" fill="#FFDBB4"/>
<path d="M87.734 8.594L85.536 10.148C85.382 10.26 85.284 10.302 85.2 10.302C85.102 10.302 85.032 10.232 84.934 10.134C82.834 7.992 82.554 7.698 82.554 7.46C82.554 7.39 82.582 7.334 82.652 7.292L84.528 6.046C84.654 5.948 84.794 5.878 84.934 5.878C85.34 5.878 87.888 7.586 87.888 8.314C87.888 8.426 87.846 8.51 87.734 8.594ZM92.564 9.868L93.782 12.052C93.81 12.094 93.81 12.136 93.81 12.164C93.81 12.262 93.754 12.36 93.67 12.43C91.15 14.418 88.462 15.818 85.676 16.63C85.634 16.644 85.592 16.658 85.55 16.658C85.452 16.658 85.354 16.602 85.298 16.504L83.912 14.026C83.898 13.984 83.884 13.942 83.884 13.9C83.884 13.802 83.94 13.704 84.038 13.648C86.236 12.794 90.45 10.834 92.2 9.742C92.242 9.728 92.284 9.714 92.312 9.714C92.41 9.714 92.508 9.77 92.564 9.868Z" fill="#FFDBB4"/>
<path d="M104.856 19.944L97.87 20.21C97.716 20.21 97.59 20.098 97.576 19.944L97.408 17.592V17.536C97.408 17.41 97.45 17.298 97.604 17.298L102.014 17.144C102.28 17.102 102.336 17.046 102.378 16.85C102.476 16.374 102.938 13.91 102.938 13.63C102.938 13.392 102.784 13.308 102.686 13.28L97.604 12.86C97.464 12.846 97.366 12.734 97.366 12.594V12.566L97.576 10.326C97.59 10.186 97.702 10.088 97.842 10.088H97.87L105.234 10.662C106.06 10.732 106.69 11.334 106.69 12.09C106.69 12.174 106.676 12.258 106.662 12.342C106.228 14.806 105.934 16.934 105.528 19.398C105.472 19.706 105.29 19.916 104.856 19.944ZM108.37 9.57L107.6 10.242C107.53 10.298 107.46 10.326 107.404 10.326C107.306 10.326 107.222 10.27 107.152 10.2L106.256 9.234C106.186 9.164 106.158 9.094 106.158 9.038C106.158 8.94 106.256 8.87 106.312 8.828L107.026 8.282C107.096 8.226 107.166 8.212 107.236 8.212C107.348 8.212 107.446 8.268 107.544 8.338L108.356 9.08L108.398 9.108C108.482 9.178 108.51 9.248 108.51 9.318C108.51 9.402 108.454 9.486 108.37 9.57ZM105.752 10.074L104.884 10.13H104.786C104.59 10.13 104.492 10.06 104.45 9.92L104.156 8.842C104.142 8.772 104.128 8.73 104.128 8.674C104.128 8.506 104.24 8.45 104.394 8.422L105.416 8.296H105.458C105.654 8.296 105.794 8.464 105.836 8.632L106.074 9.682C106.088 9.724 106.088 9.766 106.088 9.808C106.088 9.962 105.99 10.046 105.752 10.074Z" fill="#FFDBB4"/>
<path d="M120.816 13.304L111.324 13.318C111.17 13.318 110.974 13.178 110.974 12.996V10.448C110.974 10.28 111.156 10.14 111.31 10.14L120.816 10.154C120.97 10.154 121.152 10.294 121.152 10.476V13.01C121.152 13.178 120.97 13.304 120.816 13.304Z" fill="#FFDBB4"/>
<path d="M134.012 13.148L135.174 15.206C135.188 15.248 135.202 15.276 135.202 15.318C135.202 15.416 135.146 15.514 135.048 15.584C132.542 17.572 129.714 19.042 126.928 19.854C126.886 19.868 126.844 19.882 126.802 19.882C126.704 19.882 126.606 19.826 126.55 19.728L125.22 17.376C125.192 17.334 125.178 17.292 125.178 17.25C125.178 17.138 125.248 17.054 125.346 16.998C127.544 16.144 131.898 14.114 133.634 13.022C133.676 13.008 133.718 12.994 133.76 12.994C133.858 12.994 133.956 13.05 134.012 13.148ZM127.572 14.016L125.262 15.038C125.136 15.094 125.052 15.122 124.982 15.122C124.856 15.122 124.814 15.038 124.73 14.926C123.19 12.588 123.092 12.364 123.092 12.21C123.092 12.126 123.12 12.056 123.204 12.028L125.164 11.202C125.262 11.16 125.374 11.132 125.472 11.132C125.57 11.132 125.668 11.16 125.766 11.23C126.284 11.664 127.768 13.12 127.768 13.736C127.768 13.848 127.712 13.946 127.572 14.016ZM130.974 10.362L129.098 11.972C128.958 12.098 128.874 12.14 128.804 12.14C128.72 12.14 128.65 12.084 128.566 12.014C126.382 10.18 126.228 9.97 126.228 9.788C126.228 9.732 126.242 9.676 126.298 9.634L127.894 8.332C128.02 8.234 128.146 8.15 128.286 8.15C128.594 8.15 131.1 9.508 131.1 10.138C131.1 10.208 131.058 10.292 130.974 10.362ZM135.65 8.766L134.88 9.438C134.81 9.494 134.74 9.522 134.684 9.522C134.586 9.522 134.502 9.466 134.432 9.396L133.536 8.43C133.466 8.36 133.438 8.29 133.438 8.234C133.438 8.136 133.536 8.066 133.592 8.024L134.306 7.478C134.376 7.422 134.446 7.408 134.516 7.408C134.628 7.408 134.726 7.464 134.824 7.534L135.636 8.276L135.678 8.304C135.762 8.374 135.79 8.444 135.79 8.514C135.79 8.598 135.734 8.682 135.65 8.766ZM133.032 9.27L132.164 9.326H132.066C131.87 9.326 131.772 9.256 131.73 9.116L131.436 8.038C131.422 7.968 131.408 7.926 131.408 7.87C131.408 7.702 131.52 7.646 131.674 7.618L132.696 7.492H132.738C132.934 7.492 133.074 7.66 133.116 7.828L133.354 8.878C133.368 8.92 133.368 8.962 133.368 9.004C133.368 9.158 133.27 9.242 133.032 9.27Z" fill="#FFDBB4"/>
<path d="M139.98 19.59L138.33 19.71C138.2 19.71 138.11 19.61 138.09 19.49C137.93 18.42 137.79 16.42 137.71 14.61L136.28 14.51C136.17 14.5 136.09 14.4 136.09 14.29L136.18 12.62C136.19 12.51 136.28 12.43 136.39 12.43H136.41L137.63 12.53C137.63 12.25 137.62 12 137.62 11.78C137.62 11.56 137.63 11.36 137.63 11.21C137.63 11.12 137.67 10.99 137.78 10.99C138.1 11 139.1 11.02 139.6 11.02C139.77 11.02 139.86 11.17 139.88 11.29C139.88 11.35 139.91 11.92 139.94 12.73L143 12.98C143.51 13.03 144.16 13.26 144.16 14.02C144.16 15.62 142.22 17.07 141.84 17.07C141.75 17.07 141.66 17.03 141.56 16.92C141.28 16.64 140.93 16.37 140.75 16.17C140.7 16.11 140.68 16.06 140.68 16C140.68 15.93 140.71 15.86 140.77 15.8C140.98 15.61 141.27 15.08 141.27 14.97C141.27 14.9 141.24 14.86 141.15 14.85L140.03 14.77C140.11 16.95 140.21 19.35 140.21 19.35C140.21 19.47 140.11 19.58 139.98 19.59Z" fill="#FFDBB4"/>
<path d="M153.14 15.78H153.196C153.35 15.78 153.476 15.836 153.518 16.046C153.588 16.41 153.784 17.194 153.868 17.74C153.882 17.81 153.882 17.866 153.882 17.922C153.882 18.16 153.756 18.258 153.546 18.356C152.454 18.804 150.718 19.042 149.15 19.042C148.828 19.042 148.506 19.042 148.212 19.014C147.792 18.986 147.526 18.664 147.526 18.286C147.526 18.202 147.54 18.104 147.568 18.02L150.186 8.948C150.228 8.808 150.326 8.682 150.452 8.682H150.494L153.336 9.214C153.476 9.242 153.616 9.34 153.616 9.466C153.616 9.48 153.616 9.508 153.602 9.522L151.642 15.542C151.628 15.584 151.628 15.612 151.628 15.64C151.628 15.752 151.642 15.808 152.16 15.808C152.51 15.808 152.916 15.78 153.14 15.78ZM158.572 18.02L156.08 18.93C155.954 18.986 155.856 19 155.786 19C155.576 19 155.534 18.93 153.896 15.57C153.84 15.458 153.798 15.332 153.798 15.22C153.798 15.108 153.84 15.024 153.952 14.982L156.038 14.282C156.136 14.24 156.234 14.226 156.332 14.226C156.472 14.226 156.598 14.268 156.71 14.38C157.382 15.038 158.824 16.984 158.824 17.67C158.824 17.824 158.754 17.95 158.572 18.02Z" fill="#FFDBB4"/>
<path d="M313.384 93H311.176C311.144 92.744 311.112 92.52 311.08 92.328C311.064 92.12 311.048 91.88 311.032 91.608C310.664 92.264 310.208 92.712 309.664 92.952C309.12 93.176 308.504 93.288 307.816 93.288C306.968 93.288 306.248 93.104 305.656 92.736C305.064 92.368 304.584 91.832 304.216 91.128C303.848 90.408 303.584 89.536 303.424 88.512C303.264 87.488 303.184 86.312 303.184 84.984C303.184 82.024 303.664 79.872 304.624 78.528C305.584 77.184 306.936 76.512 308.68 76.512C309.416 76.512 310.04 76.608 310.552 76.8C311.064 76.992 311.488 77.24 311.824 77.544C312.176 77.832 312.448 78.16 312.64 78.528C312.848 78.88 313 79.232 313.096 79.584C313.208 79.936 313.272 80.264 313.288 80.568C313.32 80.856 313.344 81.08 313.36 81.24H310.504C310.488 81.08 310.456 80.872 310.408 80.616C310.376 80.36 310.296 80.112 310.168 79.872C310.04 79.616 309.848 79.4 309.592 79.224C309.352 79.048 309.016 78.96 308.584 78.96C308.12 78.96 307.728 79.112 307.408 79.416C307.104 79.704 306.856 80.12 306.664 80.664C306.488 81.192 306.36 81.824 306.28 82.56C306.216 83.296 306.184 84.104 306.184 84.984C306.184 85.928 306.216 86.768 306.28 87.504C306.344 88.224 306.464 88.832 306.64 89.328C306.816 89.824 307.048 90.2 307.336 90.456C307.64 90.712 308.024 90.84 308.488 90.84C309.256 90.84 309.784 90.544 310.072 89.952C310.36 89.36 310.504 88.464 310.504 87.264V86.352H308.32V83.88H313.384V93ZM318.535 88.92L317.719 93H314.815L318.583 76.752H322.351L326.143 93H323.095L322.303 88.92H318.535ZM321.775 86.4C321.471 84.832 321.199 83.48 320.959 82.344C320.735 81.192 320.559 80.232 320.431 79.464H320.359C320.263 80.216 320.095 81.184 319.855 82.368C319.615 83.552 319.343 84.896 319.039 86.4H321.775ZM337.556 86.952C337.556 86.264 337.556 85.56 337.556 84.84C337.572 84.12 337.58 83.416 337.58 82.728C337.596 82.04 337.604 81.392 337.604 80.784C337.62 80.176 337.636 79.64 337.652 79.176H337.58C337.436 79.944 337.276 80.856 337.1 81.912C336.924 82.952 336.724 84.08 336.5 85.296C336.292 86.496 336.06 87.752 335.804 89.064C335.564 90.376 335.316 91.688 335.06 93H332.444C332.252 91.784 332.044 90.528 331.82 89.232C331.612 87.92 331.404 86.648 331.196 85.416C331.004 84.184 330.82 83.024 330.644 81.936C330.468 80.848 330.316 79.912 330.188 79.128H330.092C330.108 79.608 330.124 80.168 330.14 80.808C330.172 81.448 330.196 82.128 330.212 82.848C330.228 83.568 330.236 84.304 330.236 85.056C330.252 85.808 330.26 86.536 330.26 87.24V93H327.62V76.752H331.964C332.172 77.872 332.372 78.984 332.564 80.088C332.756 81.192 332.932 82.248 333.092 83.256C333.268 84.248 333.42 85.168 333.548 86.016C333.692 86.848 333.804 87.56 333.884 88.152H333.908C333.988 87.608 334.108 86.912 334.268 86.064C334.428 85.2 334.604 84.256 334.796 83.232C335.004 82.208 335.22 81.144 335.444 80.04C335.668 78.92 335.884 77.824 336.092 76.752H340.34V93H337.556V86.952ZM351.246 85.776H346.014V90.504H351.87L351.51 93H343.158V76.752H351.486V79.296H346.014V83.256H351.246V85.776ZM362.478 88.728C362.478 89.4 362.422 90.016 362.31 90.576C362.214 91.12 362.022 91.592 361.734 91.992C361.462 92.376 361.07 92.68 360.558 92.904C360.062 93.112 359.406 93.216 358.59 93.216C358.27 93.216 357.974 93.2 357.702 93.168C357.43 93.136 357.206 93.104 357.03 93.072V90.672C357.158 90.688 357.31 90.704 357.486 90.72C357.662 90.736 357.854 90.744 358.062 90.744C358.702 90.744 359.11 90.592 359.286 90.288C359.462 89.968 359.55 89.496 359.55 88.872V76.752H362.478V88.728ZM367.473 88.92L366.657 93H363.753L367.521 76.752H371.289L375.081 93H372.033L371.241 88.92H367.473ZM370.713 86.4C370.409 84.832 370.137 83.48 369.897 82.344C369.673 81.192 369.497 80.232 369.369 79.464H369.297C369.201 80.216 369.033 81.184 368.793 82.368C368.553 83.552 368.281 84.896 367.977 86.4H370.713ZM386.494 86.952C386.494 86.264 386.494 85.56 386.494 84.84C386.51 84.12 386.518 83.416 386.518 82.728C386.534 82.04 386.542 81.392 386.542 80.784C386.558 80.176 386.574 79.64 386.59 79.176H386.518C386.374 79.944 386.214 80.856 386.038 81.912C385.862 82.952 385.662 84.08 385.438 85.296C385.23 86.496 384.998 87.752 384.742 89.064C384.502 90.376 384.254 91.688 383.998 93H381.382C381.19 91.784 380.982 90.528 380.758 89.232C380.55 87.92 380.342 86.648 380.134 85.416C379.942 84.184 379.758 83.024 379.582 81.936C379.406 80.848 379.254 79.912 379.126 79.128H379.03C379.046 79.608 379.062 80.168 379.078 80.808C379.11 81.448 379.134 82.128 379.15 82.848C379.166 83.568 379.174 84.304 379.174 85.056C379.19 85.808 379.198 86.536 379.198 87.24V93H376.558V76.752H380.902C381.11 77.872 381.31 78.984 381.502 80.088C381.694 81.192 381.87 82.248 382.03 83.256C382.206 84.248 382.358 85.168 382.486 86.016C382.63 86.848 382.742 87.56 382.822 88.152H382.846C382.926 87.608 383.046 86.912 383.206 86.064C383.366 85.2 383.542 84.256 383.734 83.232C383.942 82.208 384.158 81.144 384.382 80.04C384.606 78.92 384.822 77.824 385.03 76.752H389.278V93H386.494V86.952Z" fill="white"/>
<path d="M31.0697 17.3235C31.0696 16.2137 28.4947 12.8843 26.9497 10.1098C27.9796 9.55489 28.4947 9 28.4947 9C30.5546 10.6647 31.5847 13.4392 33.1296 16.2137L31.0697 17.3235Z" fill="url(#paint9_linear_0_1)"/>
<path d="M33.1294 60.5017C41.8845 68.8252 47.1515 73.2277 54.7592 69.8656C62.9993 66.2241 69.5194 9.26697 32.0996 16.2831C-1.03487 34.2375 30.2735 57.7865 33.1294 60.5017Z" fill="url(#paint10_linear_0_1)"/>
<path d="M62.9993 34.289C62.4843 22.8442 45.4895 6.19719 31.0696 12.4398C35.1896 14.5207 41.3695 18.1622 44.9745 22.324C49.0944 27.5262 63.1162 36.8875 62.9993 34.289Z" fill="url(#paint11_linear_0_1)"/>
<path fill-rule="evenodd" clip-rule="evenodd" d="M17 68C17 70.7614 19.2386 73 22 73H23C25.7614 73 28 70.7614 28 68V63H33C35.7614 63 38 60.7614 38 58V57C38 54.2386 35.7614 52 33 52H28V47C28 44.2386 25.7614 42 23 42H22C19.2386 42 17 44.2386 17 47V52H12C9.23858 52 7 54.2386 7 57V58C7 60.7614 9.23858 63 12 63H17V68Z" fill="url(#paint12_linear_0_1)" fill-opacity="0.3"/>
<path fill-rule="evenodd" clip-rule="evenodd" d="M27.6667 47.1667C27.6667 50.0201 25.3535 52.3333 22.5 52.3333C19.6465 52.3333 17.3333 50.0201 17.3333 47.1667C17.3333 44.3132 19.6465 42 22.5 42C25.3535 42 27.6667 44.3132 27.6667 47.1667ZM12.1667 62.6667C15.0201 62.6667 17.3333 60.3535 17.3333 57.5C17.3333 54.6465 15.0201 52.3333 12.1667 52.3333C9.3132 52.3333 7 54.6465 7 57.5C7 60.3535 9.3132 62.6667 12.1667 62.6667ZM22.5 73C25.3535 73 27.6667 70.6868 27.6667 67.8333C27.6667 64.9799 25.3535 62.6667 22.5 62.6667C19.6465 62.6667 17.3333 64.9799 17.3333 67.8333C17.3333 70.6868 19.6465 73 22.5 73ZM32.8333 62.6667C35.6868 62.6667 38 60.3535 38 57.5C38 54.6465 35.6868 52.3333 32.8333 52.3333C29.9799 52.3333 27.6667 54.6465 27.6667 57.5C27.6667 60.3535 29.9799 62.6667 32.8333 62.6667Z" fill="url(#paint13_linear_0_1)"/>
<path fill-rule="evenodd" clip-rule="evenodd" d="M27.6667 47.1667C27.6667 50.0201 25.3535 52.3333 22.5 52.3333C19.6465 52.3333 17.3333 50.0201 17.3333 47.1667C17.3333 44.3132 19.6465 42 22.5 42C25.3535 42 27.6667 44.3132 27.6667 47.1667ZM12.1667 62.6667C15.0201 62.6667 17.3333 60.3535 17.3333 57.5C17.3333 54.6465 15.0201 52.3333 12.1667 52.3333C9.3132 52.3333 7 54.6465 7 57.5C7 60.3535 9.3132 62.6667 12.1667 62.6667ZM22.5 73C25.3535 73 27.6667 70.6868 27.6667 67.8333C27.6667 64.9799 25.3535 62.6667 22.5 62.6667C19.6465 62.6667 17.3333 64.9799 17.3333 67.8333C17.3333 70.6868 19.6465 73 22.5 73ZM32.8333 62.6667C35.6868 62.6667 38 60.3535 38 57.5C38 54.6465 35.6868 52.3333 32.8333 52.3333C29.9799 52.3333 27.6667 54.6465 27.6667 57.5C27.6667 60.3535 29.9799 62.6667 32.8333 62.6667Z" fill="url(#paint14_linear_0_1)"/>
<defs>
<linearGradient id="paint0_linear_0_1" x1="299.327" y1="-5" x2="299.327" y2="66" gradientUnits="userSpaceOnUse">
<stop stop-color="#FFE77B"/>
<stop offset="0.604" stop-color="#FFE77B"/>
<stop offset="0.864" stop-color="white"/>
<stop offset="1" stop-color="white"/>
</linearGradient>
<linearGradient id="paint1_linear_0_1" x1="326.327" y1="-5" x2="326.327" y2="66" gradientUnits="userSpaceOnUse">
<stop stop-color="#FFE77B"/>
<stop offset="0.604" stop-color="#FFE77B"/>
<stop offset="0.864" stop-color="white"/>
<stop offset="1" stop-color="white"/>
</linearGradient>
<linearGradient id="paint2_linear_0_1" x1="361.327" y1="-5" x2="361.327" y2="66" gradientUnits="userSpaceOnUse">
<stop stop-color="#FFE77B"/>
<stop offset="0.604" stop-color="#FFE77B"/>
<stop offset="0.864" stop-color="white"/>
<stop offset="1" stop-color="white"/>
</linearGradient>
<linearGradient id="paint3_linear_0_1" x1="361.327" y1="-5" x2="361.327" y2="66" gradientUnits="userSpaceOnUse">
<stop stop-color="#FFE77B"/>
<stop offset="0.604" stop-color="#FFE77B"/>
<stop offset="0.864" stop-color="white"/>
<stop offset="1" stop-color="white"/>
</linearGradient>
<linearGradient id="paint4_linear_0_1" x1="85.297" y1="-5" x2="85.297" y2="66" gradientUnits="userSpaceOnUse">
<stop stop-color="#FFE77B"/>
<stop offset="0.604" stop-color="#FFE77B"/>
<stop offset="0.864" stop-color="white"/>
<stop offset="1" stop-color="white"/>
</linearGradient>
<linearGradient id="paint5_linear_0_1" x1="136.327" y1="-5" x2="136.327" y2="66" gradientUnits="userSpaceOnUse">
<stop stop-color="#FFE77B"/>
<stop offset="0.604" stop-color="#FFE77B"/>
<stop offset="0.864" stop-color="white"/>
<stop offset="1" stop-color="white"/>
</linearGradient>
<linearGradient id="paint6_linear_0_1" x1="246.327" y1="-5" x2="246.327" y2="66" gradientUnits="userSpaceOnUse">
<stop stop-color="#FFE77B"/>
<stop offset="0.604" stop-color="#FFE77B"/>
<stop offset="0.864" stop-color="white"/>
<stop offset="1" stop-color="white"/>
</linearGradient>
<linearGradient id="paint7_linear_0_1" x1="172.327" y1="-5" x2="172.327" y2="66" gradientUnits="userSpaceOnUse">
<stop stop-color="#FFE77B"/>
<stop offset="0.604" stop-color="#FFE77B"/>
<stop offset="0.864" stop-color="white"/>
<stop offset="1" stop-color="white"/>
</linearGradient>
<linearGradient id="paint8_linear_0_1" x1="210.327" y1="-5" x2="210.327" y2="66" gradientUnits="userSpaceOnUse">
<stop stop-color="#FFE77B"/>
<stop offset="0.604" stop-color="#FFE77B"/>
<stop offset="0.864" stop-color="white"/>
<stop offset="1" stop-color="white"/>
</linearGradient>
<linearGradient id="paint9_linear_0_1" x1="30.0397" y1="9" x2="30.0397" y2="17.3235" gradientUnits="userSpaceOnUse">
<stop stop-color="#5C3B12"/>
<stop offset="0.5139" stop-color="#6E4923"/>
<stop offset="0.514" stop-color="#B07C63"/>
<stop offset="1" stop-color="#D39886"/>
</linearGradient>
<linearGradient id="paint10_linear_0_1" x1="28.8162" y1="62.2598" x2="39.1561" y2="44.5914" gradientUnits="userSpaceOnUse">
<stop stop-color="#DA8752"/>
<stop offset="0.484" stop-color="#DA8752"/>
<stop offset="0.4841" stop-color="#ECBC60"/>
<stop offset="0.629" stop-color="#F1C365"/>
<stop offset="1" stop-color="#FFD572"/>
</linearGradient>
<linearGradient id="paint11_linear_0_1" x1="45.4474" y1="23.6737" x2="48.572" y2="16.0295" gradientUnits="userSpaceOnUse">
<stop stop-color="#48D67E"/>
<stop offset="0.4989" stop-color="#7DEB97"/>
<stop offset="0.499" stop-color="#8FF39F"/>
<stop offset="1" stop-color="#AEFFAE"/>
</linearGradient>
<linearGradient id="paint12_linear_0_1" x1="22.5" y1="42" x2="22.5" y2="73" gradientUnits="userSpaceOnUse">
<stop stop-color="#FEB60D"/>
<stop offset="1" stop-color="#15130E"/>
</linearGradient>
<linearGradient id="paint13_linear_0_1" x1="22.5" y1="42" x2="22.5" y2="73" gradientUnits="userSpaceOnUse">
<stop stop-color="#FFF7E5"/>
<stop offset="1" stop-color="#FFCE5A"/>
</linearGradient>
<linearGradient id="paint14_linear_0_1" x1="22.5" y1="42" x2="22.5" y2="73" gradientUnits="userSpaceOnUse">
<stop stop-color="#FFF7E5"/>
<stop offset="1" stop-color="#FFCE5A"/>
</linearGradient>
</defs>
</svg>
